<?xml version="1.0" encoding="UTF-8"?>
<svg version="1.1" xmlns="http://www.w3.org/2000/svg" width="154" height="27">
<path d="M0 0 C50.82 0 101.64 0 154 0 C154 8.91 154 17.82 154 27 C103.18 27 52.36 27 0 27 C0 18.09 0 9.18 0 0 Z " fill="#F9FAFA" transform="translate(0,0)"/>
<path d="M0 0 C20.79 0 41.58 0 63 0 C61.68 0.99 60.36 1.98 59 3 C58.45335454 5.01614169 58.45335454 5.01614169 58.609375 7.23046875 C58.62226562 8.03291016 58.63515625 8.83535156 58.6484375 9.66210938 C58.69871094 10.91217773 58.69871094 10.91217773 58.75 12.1875 C58.76804688 13.03248047 58.78609375 13.87746094 58.8046875 14.74804688 C58.85179414 16.83251573 58.92353767 18.91640144 59 21 C61.97 21.33 64.94 21.66 68 22 C68 21.34 68 20.68 68 20 C65.69 19.67 63.38 19.34 61 19 C60.97314905 16.52076199 60.95323453 14.0418116 60.9375 11.5625 C60.92912109 10.85544922 60.92074219 10.14839844 60.91210938 9.41992188 C60.90346412 7.61306441 60.94779989 5.80612397 61 4 C62.58937556 2.41062444 64.23899846 2.87018857 66.4375 2.8671875 C67.33210938 2.86589844 68.22671875 2.86460938 69.1484375 2.86328125 C70.08945313 2.86714844 71.03046875 2.87101563 72 2.875 C73.41152344 2.86919922 73.41152344 2.86919922 74.8515625 2.86328125 C76.19347656 2.86521484 76.19347656 2.86521484 77.5625 2.8671875 C78.38878906 2.86831543 79.21507813 2.86944336 80.06640625 2.87060547 C82 3 82 3 83 4 C83.07313567 6.53049402 83.09247527 9.03304837 83.0625 11.5625 C83.05798828 12.27341797 83.05347656 12.98433594 83.04882812 13.71679688 C83.03700864 15.47790013 83.01907263 17.23896036 83 19 C79.7 19.66 76.4 20.32 73 21 C73.99 23.97 73.99 23.97 75 27 C50.25 27 25.5 27 0 27 C0 18.09 0 9.18 0 0 Z " fill="#FDFBF7" transform="translate(0,0)"/>
<path d="M0 0 C17.49 0 34.98 0 53 0 C53 0.99 53 1.98 53 3 C46.4 3 39.8 3 33 3 C33 4.98 33 6.96 33 9 C39.27 9 45.54 9 52 9 C52 9.99 52 10.98 52 12 C45.73 12 39.46 12 33 12 C33 14.64 33 17.28 33 20 C39.6 20 46.2 20 53 20 C53 20.99 53 21.98 53 23 C49.4375173 23.02913821 45.87506546 23.04684529 42.3125 23.0625 C40.80139648 23.07506836 40.80139648 23.07506836 39.25976562 23.08789062 C38.28330078 23.09111328 37.30683594 23.09433594 36.30078125 23.09765625 C35.40528564 23.10289307 34.50979004 23.10812988 33.5871582 23.11352539 C31 23 31 23 28.35620117 22.43139648 C25.86031235 21.77883403 25.86031235 21.77883403 23 23 C19.67095111 23.2519693 16.33760403 23.2311966 13 23.25 C11.62714844 23.2809375 11.62714844 23.2809375 10.2265625 23.3125 C9.34742188 23.31765625 8.46828125 23.3228125 7.5625 23.328125 C6.75941406 23.3374707 5.95632812 23.34681641 5.12890625 23.35644531 C3 23 3 23 0 20 C0 13.4 0 6.8 0 0 Z " fill="#FBF8EF" transform="translate(0,0)"/>
<path d="M0 0 C3.58326501 -0.05814085 7.16640838 -0.09364357 10.75 -0.125 C11.76578125 -0.14175781 12.7815625 -0.15851562 13.828125 -0.17578125 C14.8078125 -0.18222656 15.7875 -0.18867187 16.796875 -0.1953125 C17.69760742 -0.20578613 18.59833984 -0.21625977 19.52636719 -0.22705078 C22.13926856 0.01278324 23.75664666 0.67687936 26 2 C26 3.32 26 4.64 26 6 C25.01 6 24.02 6 23 6 C22.67 5.34 22.34 4.68 22 4 C16.06 4 10.12 4 4 4 C4 5.65 4 7.3 4 9 C5.87945312 9.05607422 5.87945312 9.05607422 7.796875 9.11328125 C9.44794621 9.17894885 11.09898655 9.24539593 12.75 9.3125 C13.575 9.33505859 14.4 9.35761719 15.25 9.38085938 C18.79379617 9.53804388 21.37187495 9.67391364 24.55078125 11.32421875 C26 13 26 13 26.4375 16.5 C26 20 26 20 24.7578125 21.69384766 C22.51694255 23.35893853 21.21190449 23.38674759 18.4375 23.3984375 C17.55835937 23.40230469 16.67921875 23.40617187 15.7734375 23.41015625 C14.85820312 23.39855469 13.94296875 23.38695313 13 23.375 C11.62714844 23.39240234 11.62714844 23.39240234 10.2265625 23.41015625 C9.34742188 23.40628906 8.46828125 23.40242188 7.5625 23.3984375 C6.35787109 23.39336182 6.35787109 23.39336182 5.12890625 23.38818359 C2.43773254 22.89747646 1.5602411 22.23549096 0 20 C-0.34057617 17.82348633 -0.34057617 17.82348633 -0.29296875 15.33203125 C-0.28330078 14.43935547 -0.27363281 13.54667969 -0.26367188 12.62695312 C-0.23853516 11.69818359 -0.21339844 10.76941406 -0.1875 9.8125 C-0.17396484 8.87212891 -0.16042969 7.93175781 -0.14648438 6.96289062 C-0.11113096 4.64134962 -0.06178674 2.32096347 0 0 Z " fill="#F9AA33" transform="translate(0,0)"/>
<path d="M0 0 C0.85916016 -0.01611328 1.71832031 -0.03222656 2.60351562 -0.04882812 C6.27608912 -0.05167729 8.85681595 -0.04936205 12.16015625 1.64453125 C13.5625 3.3125 13.5625 3.3125 13.5625 6.3125 C12.5725 6.3125 11.5825 6.3125 10.5625 6.3125 C10.5625 5.6525 10.5625 4.9925 10.5625 4.3125 C3.9625 4.3125 -2.6375 4.3125 -9.4375 4.3125 C-9.4375 6.2925 -9.4375 8.2725 -9.4375 10.3125 C-8.88288086 10.30202637 -8.32826172 10.29155273 -7.75683594 10.28076172 C-5.23377041 10.23907996 -2.71077747 10.21313562 -0.1875 10.1875 C1.12154297 10.16236328 1.12154297 10.16236328 2.45703125 10.13671875 C3.30136719 10.13027344 4.14570312 10.12382812 5.015625 10.1171875 C5.79067383 10.10671387 6.56572266 10.09624023 7.36425781 10.08544922 C9.82133539 10.33923444 11.43561542 11.08805848 13.5625 12.3125 C14.04797666 19.71601904 14.04797666 19.71601904 12.14453125 22.0546875 C8.16858549 23.99153249 4.36024294 23.706775 0 23.625 C-1.29454102 23.62983398 -1.29454102 23.62983398 -2.61523438 23.63476562 C-9.03642451 23.57988366 -9.03642451 23.57988366 -12.4375 21.3125 C-12.625 18.1875 -12.625 18.1875 -12.4375 15.3125 C-11.4475 15.3125 -10.4575 15.3125 -9.4375 15.3125 C-9.1075 16.6325 -8.7775 17.9525 -8.4375 19.3125 C-2.1675 19.3125 4.1025 19.3125 10.5625 19.3125 C10.0675 16.8375 10.0675 16.8375 9.5625 14.3125 C8.72271606 14.29062622 8.72271606 14.29062622 7.8659668 14.26831055 C5.32661863 14.19378648 2.78857922 14.09714419 0.25 14 C-1.07161133 13.96616211 -1.07161133 13.96616211 -2.41992188 13.93164062 C-3.26748047 13.89619141 -4.11503906 13.86074219 -4.98828125 13.82421875 C-6.15870972 13.78494263 -6.15870972 13.78494263 -7.3527832 13.74487305 C-9.92128293 13.21216277 -10.8367814 12.35547706 -12.4375 10.3125 C-13.0124726 7.46582193 -12.71860629 5.26411603 -12.4375 2.3125 C-8.27799575 -0.46050283 -4.88617832 -0.01824562 0 0 Z " fill="#7C97A0" transform="translate(113.4375,-0.3125)"/>
<path d="M0 0 C10.23 0 20.46 0 31 0 C31 0.99 31 1.98 31 3 C27.37 3 23.74 3 20 3 C20 9.27 20 15.54 20 22 C19.34 22 18.68 22 18 22 C18 15.73 18 9.46 18 3 C14.37 3 10.74 3 7 3 C7 2.34 7 1.68 7 1 C6.34 1 5.68 1 5 1 C5.185625 1.61875 5.37125 2.2375 5.5625 2.875 C6 5 6 5 5 7 C4.01 7 3.02 7 2 7 C1.67 7.66 1.34 8.32 1 9 C-2.99750082 10.35985837 -7.07888113 10.11040154 -11.25 10.0625 C-11.99507813 10.05798828 -12.74015625 10.05347656 -13.5078125 10.04882812 C-15.3385764 10.03709246 -17.16929873 10.0191585 -19 10 C-19 8.02 -19 6.04 -19 4 C-15.84150315 2.42075158 -12.4634872 2.85683486 -9 2.875 C-7.89398438 2.86919922 -7.89398438 2.86919922 -6.765625 2.86328125 C-1.2533196 2.8733402 -1.2533196 2.8733402 1 4 C1 4.66 1 5.32 1 6 C1.99 6 2.98 6 4 6 C2.84826645 3.53199953 1.95216435 1.95216435 0 0 Z " fill="#FAFBFB" transform="translate(123,0)"/>
<path d="M0 0 C7.26 0 14.52 0 22 0 C22 0.99 22 1.98 22 3 C15.4 3 8.8 3 2 3 C2 4.98 2 6.96 2 9 C8.27 9 14.54 9 21 9 C21 9.99 21 10.98 21 12 C14.73 12 8.46 12 2 12 C2 14.64 2 17.28 2 20 C8.6 20 15.2 20 22 20 C22 20.99 22 21.98 22 23 C14.74 23 7.48 23 0 23 C0 15.41 0 7.82 0 0 Z " fill="#F9A425" transform="translate(31,0)"/>
<path d="M0 0 C0.7940625 -0.01160156 1.588125 -0.02320312 2.40625 -0.03515625 C10.65104161 0.00606771 10.65104161 0.00606771 14 3.375 C14.4378584 6.26547784 14.5676168 8.50732771 14.4375 11.375 C14.43169922 12.09945313 14.42589844 12.82390625 14.41992188 13.5703125 C14.33323197 17.32918678 14.12557005 19.18664493 12 22.375 C8.375 22.5625 8.375 22.5625 5 22.375 C5.33 23.365 5.66 24.355 6 25.375 C2.83884224 24.00516497 2.0072908 23.3859362 0 20.375 C3.63 20.045 7.26 19.715 11 19.375 C10.67 14.425 10.34 9.475 10 4.375 C3.4 4.375 -3.2 4.375 -10 4.375 C-10.33 9.325 -10.66 14.275 -11 19.375 C-8.69 19.705 -6.38 20.035 -4 20.375 C-4 21.035 -4 21.695 -4 22.375 C-5.4800841 22.26137738 -6.95910074 22.13377092 -8.4375 22 C-9.26121094 21.93039063 -10.08492187 21.86078125 -10.93359375 21.7890625 C-11.61550781 21.65242188 -12.29742187 21.51578125 -13 21.375 C-14.57378697 18.22742606 -14.30817679 14.89104524 -14.375 11.4375 C-14.41238281 10.70853516 -14.44976562 9.97957031 -14.48828125 9.22851562 C-14.5234375 7.09765625 -14.5234375 7.09765625 -14 3.375 C-10.13189953 -0.53162736 -5.16990976 -0.0755344 0 0 Z " fill="#F8A931" transform="translate(72,-0.375)"/>
<path d="M0 0 C4.62 0 9.24 0 14 0 C14 7.59 14 15.18 14 23 C11.03 23 8.06 23 5 23 C3.7930213 18.17208521 4.04282294 13.67655551 4.30273438 8.75585938 C4.40476793 6.38998248 4.40476793 6.38998248 4 3 C2.68 2.01 1.36 1.02 0 0 Z " fill="#FCFBF8" transform="translate(81,0)"/>
<path d="M0 0 C0.45890625 0.48082031 0.9178125 0.96164062 1.390625 1.45703125 C5.34279045 3.79401531 9.23474371 3.57078363 13.75 3.6875 C15.08224609 3.73874023 15.08224609 3.73874023 16.44140625 3.79101562 C18.62747803 3.87328714 20.81315951 3.94250172 23 4 C23.04254356 5.99954746 23.04080783 8.00041636 23 10 C22 11 22 11 20.23413086 11.11352539 C19.48526611 11.10828857 18.73640137 11.10305176 17.96484375 11.09765625 C17.15595703 11.09443359 16.34707031 11.09121094 15.51367188 11.08789062 C14.66353516 11.07951172 13.81339844 11.07113281 12.9375 11.0625 C12.08349609 11.05798828 11.22949219 11.05347656 10.34960938 11.04882812 C8.23304337 11.03700373 6.11651315 11.01906769 4 11 C3.67 9.68 3.34 8.36 3 7 C2.01 7 1.02 7 0 7 C0 4.69 0 2.38 0 0 Z " fill="#FDFCFB" transform="translate(0,9)"/>
<path d="M0 0 C0.74886475 0.00523682 1.49772949 0.01047363 2.26928711 0.01586914 C3.07817383 0.0190918 3.88706055 0.02231445 4.72045898 0.02563477 C5.5705957 0.03401367 6.42073242 0.04239258 7.29663086 0.05102539 C8.15063477 0.05553711 9.00463867 0.06004883 9.88452148 0.06469727 C12.00108749 0.07652166 14.11761771 0.0944577 16.23413086 0.11352539 C16.85913086 1.92602539 16.85913086 1.92602539 17.23413086 4.11352539 C16.24413086 5.59852539 16.24413086 5.59852539 15.23413086 7.11352539 C12.3002975 7.36170465 9.59780401 7.4399642 6.67163086 7.36352539 C5.48150391 7.35579102 5.48150391 7.35579102 4.26733398 7.34790039 C-1.61182423 7.2675703 -1.61182423 7.2675703 -2.76586914 6.11352539 C-2.89086914 3.61352539 -2.89086914 3.61352539 -2.76586914 1.11352539 C-1.76586914 0.11352539 -1.76586914 0.11352539 0 0 Z " fill="#FCFBF6" transform="translate(5.765869140625,2.886474609375)"/>
<path d="M0 0 C7.92 0 15.84 0 24 0 C24 0.99 24 1.98 24 3 C20.37 3 16.74 3 13 3 C13 9.27 13 15.54 13 22 C12.34 22 11.68 22 11 22 C11 15.73 11 9.46 11 3 C7.37 3 3.74 3 0 3 C0 2.01 0 1.02 0 0 Z " fill="#75929C" transform="translate(130,0)"/>
<path d="M0 0 C3.58326501 -0.05814085 7.16640838 -0.09364357 10.75 -0.125 C11.76578125 -0.14175781 12.7815625 -0.15851562 13.828125 -0.17578125 C14.8078125 -0.18222656 15.7875 -0.18867187 16.796875 -0.1953125 C17.69760742 -0.20578613 18.59833984 -0.21625977 19.52636719 -0.22705078 C22.13926856 0.01278324 23.75664666 0.67687936 26 2 C26 3.32 26 4.64 26 6 C25.01 6 24.02 6 23 6 C22.67 5.34 22.34 4.68 22 4 C16.06 4 10.12 4 4 4 C3.67 5.65 3.34 7.3 3 9 C2.01 9 1.02 9 0 9 C0 6.03 0 3.06 0 0 Z " fill="#F8A221" transform="translate(0,0)"/>
<path d="M0 0 C1.32 0 2.64 0 4 0 C4 7.59 4 15.18 4 23 C2.68 23 1.36 23 0 23 C0 15.41 0 7.82 0 0 Z " fill="#97AEB4" transform="translate(91,0)"/>
<path d="M0 0 C0.45890625 0.48082031 0.9178125 0.96164062 1.390625 1.45703125 C5.34279045 3.79401531 9.23474371 3.57078363 13.75 3.6875 C15.08224609 3.73874023 15.08224609 3.73874023 16.44140625 3.79101562 C18.62747803 3.87328714 20.81315951 3.94250172 23 4 C22.67 4.66 22.34 5.32 22 6 C17.05 5.67 12.1 5.34 7 5 C7.33 6.65 7.66 8.3 8 10 C6.68 10.33 5.36 10.66 4 11 C3.67 9.68 3.34 8.36 3 7 C2.01 7 1.02 7 0 7 C0 4.69 0 2.38 0 0 Z " fill="#FAF3E1" transform="translate(0,9)"/>
<path d="M0 0 C0.33 0 0.66 0 1 0 C1 6.93 1 13.86 1 21 C-1.31 21 -3.62 21 -6 21 C-4.48060708 12.63440135 -4.48060708 12.63440135 -2.4375 9.9375 C-0.1677434 6.87826284 -0.31284799 3.75417588 0 0 Z " fill="#FBECD3" transform="translate(30,1)"/>
<path d="M0 0 C0.33 0 0.66 0 1 0 C1.33 4.62 1.66 9.24 2 14 C4.31 14.66 6.62 15.32 9 16 C9 16.66 9 17.32 9 18 C7.5199159 17.88637738 6.04089926 17.75877092 4.5625 17.625 C3.73878906 17.55539063 2.91507813 17.48578125 2.06640625 17.4140625 C1.38449219 17.27742188 0.70257813 17.14078125 0 17 C-1.49341703 14.01316593 -1.13175178 11.25600226 -1.125 7.9375 C-1.12757812 6.66777344 -1.13015625 5.39804688 -1.1328125 4.08984375 C-1 1 -1 1 0 0 Z " fill="#F89C14" transform="translate(59,4)"/>
<path d="M0 0 C0.66 0 1.32 0 2 0 C3.45184478 4.53701494 4.23509196 8.18061476 4 13 C3.34 12.67 2.68 12.34 2 12 C2 10.68 2 9.36 2 8 C0.02 8.33 -1.96 8.66 -4 9 C-4 8.01 -4 7.02 -4 6 C-2.68 5.67 -1.36 5.34 0 5 C0 3.35 0 1.7 0 0 Z " fill="#FBFDFC" transform="translate(53,0)"/>
<path d="M0 0 C2.64 0 5.28 0 8 0 C8.33 0.99 8.66 1.98 9 3 C7.35 3.33 5.7 3.66 4 4 C3.67 5.65 3.34 7.3 3 9 C2.01 9 1.02 9 0 9 C0 6.03 0 3.06 0 0 Z " fill="#F7B34A" transform="translate(0,0)"/>
<path d="M0 0 C0.99 0 1.98 0 3 0 C3.33 0.99 3.66 1.98 4 3 C7.31544299 4.10514766 10.20410111 4.32107631 13.6875 4.5625 C15.45673828 4.68818359 15.45673828 4.68818359 17.26171875 4.81640625 C18.61716797 4.90728516 18.61716797 4.90728516 20 5 C20 5.33 20 5.66 20 6 C17.04142591 6.05379226 14.08382279 6.09357093 11.125 6.125 C9.86236328 6.15013672 9.86236328 6.15013672 8.57421875 6.17578125 C7.76855469 6.18222656 6.96289062 6.18867188 6.1328125 6.1953125 C5.38918457 6.20578613 4.64555664 6.21625977 3.87939453 6.22705078 C2 6 2 6 0 4 C0 2.68 0 1.36 0 0 Z " fill="#F89C16" transform="translate(0,16)"/>
<path d="M0 0 C0.804375 0.185625 1.60875 0.37125 2.4375 0.5625 C3.283125 0.706875 4.12875 0.85125 5 1 C5.33 0.67 5.66 0.34 6 0 C7.66617115 -0.04063832 9.33388095 -0.042721 11 0 C10.01 0.495 10.01 0.495 9 1 C8.34444881 3.52733235 8.34444881 3.52733235 8 6 C5.03 6 2.06 6 -1 6 C-1 5.34 -1 4.68 -1 4 C1.64 4.33 4.28 4.66 7 5 C7 4.34 7 3.68 7 3 C4.69 2.67 2.38 2.34 0 2 C0 1.34 0 0.68 0 0 Z " fill="#F9EDD7" transform="translate(61,17)"/>
<path d="M0 0 C0.33 0 0.66 0 1 0 C1.06058594 0.75925781 1.12117188 1.51851563 1.18359375 2.30078125 C1.26738281 3.29464844 1.35117188 4.28851563 1.4375 5.3125 C1.55931641 6.79169922 1.55931641 6.79169922 1.68359375 8.30078125 C1.91812559 11.09375599 1.91812559 11.09375599 3 14 C3.66 14 4.32 14 5 14 C5 14.99 5 15.98 5 17 C3.35 17 1.7 17 0 17 C-1.23104155 13.31599416 -0.90767252 10.08525024 -0.5625 6.25 C-0.46066406 5.07953125 -0.35882813 3.9090625 -0.25390625 2.703125 C-0.17011719 1.81109375 -0.08632812 0.9190625 0 0 Z " fill="#FCE8CD" transform="translate(86,6)"/>
<path d="M0 0 C2.64 0 5.28 0 8 0 C7.35546875 0.34675781 6.7109375 0.69351563 6.046875 1.05078125 C3.07528032 3.88060137 3.39764736 6.1641093 3.25 10.1875 C3.19328125 11.45980469 3.1365625 12.73210938 3.078125 14.04296875 C3.05234375 15.01878906 3.0265625 15.99460937 3 17 C2.67 17 2.34 17 2 17 C1.93941406 16.35933594 1.87882812 15.71867188 1.81640625 15.05859375 C1.32790588 10.01576687 0.76220714 5.0087898 0 0 Z " fill="#FCF4E4" transform="translate(55,0)"/>
<path d="M0 0 C6.6 0 13.2 0 20 0 C20.33 1.32 20.66 2.64 21 4 C20.34644531 3.68289062 19.69289063 3.36578125 19.01953125 3.0390625 C15.20704555 1.7271334 11.69110429 1.54673638 7.6875 1.375 C6.57665039 1.31699219 6.57665039 1.31699219 5.44335938 1.2578125 C3.62928691 1.16418295 1.81467884 1.08103149 0 1 C0 0.67 0 0.34 0 0 Z " fill="#F89B0F" transform="translate(64,1)"/>
<path d="M0 0 C0.33 0 0.66 0 1 0 C1.04241723 2.33294775 1.04092937 4.66702567 1 7 C0.67 7.33 0.34 7.66 0 8 C-0.23192865 9.51469448 -0.41215238 11.03754562 -0.5625 12.5625 C-0.64628906 13.38878906 -0.73007812 14.21507812 -0.81640625 15.06640625 C-0.87699219 15.70449219 -0.93757813 16.34257812 -1 17 C-1.33 17 -1.66 17 -2 17 C-4.27678571 8.96428571 -4.27678571 8.96428571 -3 5 C-2.34 5 -1.68 5 -1 5 C-0.67 3.35 -0.34 1.7 0 0 Z " fill="#FAFDFD" transform="translate(29,2)"/>
<path d="M0 0 C2.79192205 -0.05380578 5.5828141 -0.09357669 8.375 -0.125 C9.1690625 -0.14175781 9.963125 -0.15851562 10.78125 -0.17578125 C12.85492015 -0.19335473 14.92883241 -0.10335168 17 0 C19 2 19 2 19 6 C18.34 6 17.68 6 17 6 C16.67 4.35 16.34 2.7 16 1 C10.72 1 5.44 1 0 1 C0 0.67 0 0.34 0 0 Z " fill="#FB970A" transform="translate(7,11)"/>
<path d="M0 0 C2.31 0 4.62 0 7 0 C6.34 1.65 5.68 3.3 5 5 C3.35 5 1.7 5 0 5 C0 3.35 0 1.7 0 0 Z " fill="#FBFCFA" transform="translate(34,4)"/>
<path d="M0 0 C0.66 1.32 1.32 2.64 2 4 C1.01 4.495 1.01 4.495 0 5 C-0.65213292 7.02463255 -0.65213292 7.02463255 -1 9 C-2.32 8.01 -3.64 7.02 -5 6 C-4.34 4.68 -3.68 3.36 -3 2 C-2.01 2 -1.02 2 0 2 C0 1.34 0 0.68 0 0 Z " fill="#FCF0D8" transform="translate(26,4)"/>
<path d="M0 0 C0.29296875 6.0546875 0.29296875 6.0546875 0 8 C-0.99 8.66 -1.98 9.32 -3 10 C-3 9.34 -3 8.68 -3 8 C-3.66 7.67 -4.32 7.34 -5 7 C-4.34 7 -3.68 7 -3 7 C-3.33 5.02 -3.66 3.04 -4 1 C-1 0 -1 0 0 0 Z " fill="#869FA8" transform="translate(127,12)"/>
<path d="M0 0 C2.31 0 4.62 0 7 0 C6.01 0.495 6.01 0.495 5 1 C5.185625 1.61875 5.37125 2.2375 5.5625 2.875 C6 5 6 5 5 7 C3.68 6.67 2.36 6.34 1 6 C1.99 6 2.98 6 4 6 C2.84826645 3.53199953 1.95216435 1.95216435 0 0 Z " fill="#EEF0F2" transform="translate(123,0)"/>
</svg>
