<?xml version="1.0" encoding="UTF-8" standalone="no"?>
<svg
   width="154"
   height="32"
   viewBox="0 0 154 32"
   fill="none"
   version="1.1"
   id="svg19"
   sodipodi:docname="logo-mini.svg"
   inkscape:version="1.4 (e7c3feb1, 2024-10-09)"
   xmlns:inkscape="http://www.inkscape.org/namespaces/inkscape"
   xmlns:sodipodi="http://sodipodi.sourceforge.net/DTD/sodipodi-0.dtd"
   xmlns="http://www.w3.org/2000/svg"
   xmlns:svg="http://www.w3.org/2000/svg">
  <sodipodi:namedview
     id="namedview19"
     pagecolor="#ffffff"
     bordercolor="#000000"
     borderopacity="0.25"
     inkscape:showpageshadow="2"
     inkscape:pageopacity="0.0"
     inkscape:pagecheckerboard="0"
     inkscape:deskcolor="#d1d1d1"
     inkscape:zoom="6.8571429"
     inkscape:cx="25.666667"
     inkscape:cy="-15.677083"
     inkscape:window-width="1904"
     inkscape:window-height="968"
     inkscape:window-x="8"
     inkscape:window-y="33"
     inkscape:window-maximized="0"
     inkscape:current-layer="svg19" />
  <defs
     id="defs19">
    <filter
       id="filter0_d_1624_24907"
       x="7.42383"
       y="6.2373"
       width="5.36841"
       height="20.5263"
       filterUnits="userSpaceOnUse"
       color-interpolation-filters="sRGB">
      <feFlood
         flood-opacity="0"
         result="BackgroundImageFix"
         id="feFlood13" />
      <feColorMatrix
         in="SourceAlpha"
         type="matrix"
         values="0 0 0 0 0 0 0 0 0 0 0 0 0 0 0 0 0 0 127 0"
         result="hardAlpha"
         id="feColorMatrix13" />
      <feOffset
         dy="0.5"
         id="feOffset13" />
      <feGaussianBlur
         stdDeviation="0.5"
         id="feGaussianBlur13" />
      <feComposite
         in2="hardAlpha"
         operator="out"
         id="feComposite13" />
      <feColorMatrix
         type="matrix"
         values="0 0 0 0 0 0 0 0 0 0 0 0 0 0 0 0 0 0 0.12 0"
         id="feColorMatrix14" />
      <feBlend
         mode="normal"
         in2="BackgroundImageFix"
         result="effect1_dropShadow_1624_24907"
         id="feBlend14" />
      <feBlend
         mode="normal"
         in="SourceGraphic"
         in2="effect1_dropShadow_1624_24907"
         result="shape"
         id="feBlend15" />
    </filter>
    <filter
       id="filter1_d_1624_24907"
       x="13.7422"
       y="12.9727"
       width="5.36841"
       height="13.7895"
       filterUnits="userSpaceOnUse"
       color-interpolation-filters="sRGB">
      <feFlood
         flood-opacity="0"
         result="BackgroundImageFix"
         id="feFlood15" />
      <feColorMatrix
         in="SourceAlpha"
         type="matrix"
         values="0 0 0 0 0 0 0 0 0 0 0 0 0 0 0 0 0 0 127 0"
         result="hardAlpha"
         id="feColorMatrix15" />
      <feOffset
         dy="0.5"
         id="feOffset15" />
      <feGaussianBlur
         stdDeviation="0.5"
         id="feGaussianBlur15" />
      <feComposite
         in2="hardAlpha"
         operator="out"
         id="feComposite15" />
      <feColorMatrix
         type="matrix"
         values="0 0 0 0 0 0 0 0 0 0 0 0 0 0 0 0 0 0 0.12 0"
         id="feColorMatrix16" />
      <feBlend
         mode="normal"
         in2="BackgroundImageFix"
         result="effect1_dropShadow_1624_24907"
         id="feBlend16" />
      <feBlend
         mode="normal"
         in="SourceGraphic"
         in2="effect1_dropShadow_1624_24907"
         result="shape"
         id="feBlend17" />
    </filter>
    <filter
       id="filter2_d_1624_24907"
       x="20.0547"
       y="8.76172"
       width="5.36841"
       height="18"
       filterUnits="userSpaceOnUse"
       color-interpolation-filters="sRGB">
      <feFlood
         flood-opacity="0"
         result="BackgroundImageFix"
         id="feFlood17" />
      <feColorMatrix
         in="SourceAlpha"
         type="matrix"
         values="0 0 0 0 0 0 0 0 0 0 0 0 0 0 0 0 0 0 127 0"
         result="hardAlpha"
         id="feColorMatrix17" />
      <feOffset
         dy="0.5"
         id="feOffset17" />
      <feGaussianBlur
         stdDeviation="0.5"
         id="feGaussianBlur17" />
      <feComposite
         in2="hardAlpha"
         operator="out"
         id="feComposite17" />
      <feColorMatrix
         type="matrix"
         values="0 0 0 0 0 0 0 0 0 0 0 0 0 0 0 0 0 0 0.12 0"
         id="feColorMatrix18" />
      <feBlend
         mode="normal"
         in2="BackgroundImageFix"
         result="effect1_dropShadow_1624_24907"
         id="feBlend18" />
      <feBlend
         mode="normal"
         in="SourceGraphic"
         in2="effect1_dropShadow_1624_24907"
         result="shape"
         id="feBlend19" />
    </filter>
  </defs>
  <path
     d="m 30.542052,5.1689117 c 40.350188,0 80.700378,0 122.273288,0 0,7.8204683 0,15.6409373 0,23.6983903 -40.35017,0 -80.700366,0 -122.273288,0 0,-7.820469 0,-15.640938 0,-23.6983903 z"
     fill="#f9fafa"
     id="path1-3"
     style="stroke-width:0.834801" />
  <path
     d="m 30.542052,5.1689117 c 16.506896,0 33.01379,0 50.020895,0 -1.048057,0.868941 -2.096113,1.7378819 -3.17593,2.6331546 -0.434026,1.769604 -0.434026,1.769604 -0.310149,3.7131587 0.01023,0.704317 0.02047,1.408634 0.03101,2.134296 0.03992,1.097208 0.03992,1.097208 0.08064,2.216581 0.01433,0.741654 0.02866,1.483309 0.04343,2.247438 0.0374,1.829576 0.09436,3.65864 0.155074,5.487453 2.358128,0.289647 4.716256,0.579294 7.145842,0.877718 0,-0.579294 0,-1.158588 0,-1.755436 -1.834099,-0.289647 -3.668199,-0.579294 -5.557877,-0.877718 -0.02132,-2.176072 -0.03713,-4.351892 -0.04963,-6.528029 -0.0067,-0.620592 -0.01331,-1.241183 -0.02016,-1.88058 -0.0068,-1.585912 0.02833,-3.171896 0.06979,-4.7571637 1.261937,-1.3950241 2.571707,-0.991656 4.31728,-0.99429 0.710303,-0.0011 1.420608,-0.0023 2.152436,-0.0034 0.74715,0.0034 1.4943,0.0068 2.264091,0.01028 1.120724,-0.0051 1.120724,-0.0051 2.26409,-0.01028 1.065457,0.0017 1.065457,0.0017 2.152438,0.0034 0.656059,9.88e-4 1.312117,0.002 1.988057,0.003 1.53524,0.11357 1.53524,0.11357 2.329222,0.991288 0.05807,2.2210597 0.07342,4.4175977 0.04963,6.6377437 -0.0036,0.623986 -0.0072,1.247971 -0.01085,1.890865 -0.0093,1.545753 -0.02363,3.091467 -0.03877,4.637164 -2.620142,0.579294 -5.240284,1.158587 -7.939824,1.755436 0.786042,2.606823 0.786042,2.606823 1.587964,5.266309 -19.651066,0 -39.302131,0 -59.548684,0 0,-7.820469 0,-15.640938 0,-23.6983903 z"
     fill="#fdfbf7"
     id="path2-8"
     style="stroke-width:0.834801" />
  <path
     d="m 30.542052,5.1689117 c 13.886753,0 27.773507,0 42.08107,0 0,0.868941 0,1.7378819 0,2.6331546 -5.240284,0 -10.480568,0 -15.879649,0 0,1.737882 0,3.4757637 0,5.2663087 4.97827,0 9.95654,0 15.085667,0 0,0.868941 0,1.737882 0,2.633154 -4.97827,0 -9.95654,0 -15.085667,0 0,2.317176 0,4.634353 0,7.021746 5.240285,0 10.480568,0 15.879649,0 0,0.86894 0,1.737881 0,2.633155 -2.828549,0.02557 -5.657073,0.04112 -8.485687,0.05485 -1.19979,0.01103 -1.19979,0.01103 -2.423818,0.02229 -0.775295,0.0028 -1.550591,0.0057 -2.349382,0.0086 -0.711007,0.0046 -1.422015,0.0092 -2.154569,0.01393 -2.054158,-0.09967 -2.054158,-0.09967 -4.153288,-0.598747 -1.981692,-0.572765 -1.981692,-0.572765 -4.25273,0.499075 -2.643206,0.221157 -5.289825,0.202925 -7.939824,0.219429 -1.090021,0.02716 -1.090021,0.02716 -2.202061,0.05485 -0.698022,0.0046 -1.396045,0.009 -2.115219,0.01372 -0.637636,0.0082 -1.275272,0.0164 -1.932231,0.02486 -1.690314,-0.312862 -1.690314,-0.312862 -4.072261,-2.946018 0,-5.792939 0,-11.585879 0,-17.5543623 z"
     fill="#fbf8ef"
     id="path3-0"
     style="stroke-width:0.834801" />
  <path
     d="m 30.542052,5.1689117 c 2.84505,-0.05103 5.690002,-0.082189 8.535311,-0.1097147 0.806513,-0.01471 1.613025,-0.029421 2.443977,-0.04457 0.777855,-0.00562 1.555709,-0.011313 2.357136,-0.017142 0.715165,-0.00919 1.430331,-0.018388 2.167168,-0.027859 2.074599,0.2105067 3.358768,0.7933958 5.139952,1.9547231 0,1.1585882 0,2.3171752 0,3.5108719 -0.786043,0 -1.572086,0 -2.381948,0 -0.262014,-0.5792937 -0.524028,-1.1585877 -0.793982,-1.7554357 -4.716256,0 -9.432512,0 -14.291684,0 0,1.4482347 0,2.8964697 0,4.3885907 1.492253,0.04921 1.492253,0.04921 3.014651,0.09943 1.310923,0.05764 2.62182,0.115959 3.932695,0.174858 0.655036,0.0198 1.310071,0.0396 1.984956,0.06001 2.813712,0.137964 4.860662,0.257219 7.384657,1.705723 1.150655,1.470864 1.150655,1.470864 1.498022,4.542877 -0.347367,3.072013 -0.347367,3.072013 -1.333642,4.558735 -1.779211,1.46148 -2.815389,1.485888 -5.018218,1.496148 -0.698022,0.0035 -1.396044,0.0067 -2.115218,0.01028 -0.726681,-0.01018 -1.45336,-0.02037 -2.202061,-0.03086 -1.090021,0.01527 -1.090021,0.01527 -2.202061,0.03086 -0.698022,-0.0035 -1.396045,-0.0067 -2.115219,-0.01028 -0.956454,-0.0045 -0.956454,-0.0045 -1.932231,-0.009 -2.136745,-0.430709 -2.833457,-1.011745 -4.072261,-2.973877 -0.270411,-1.910365 -0.270411,-1.910365 -0.232613,-4.097161 0.0077,-0.783518 0.01536,-1.567035 0.02327,-2.374296 0.01996,-0.815197 0.03991,-1.630395 0.06048,-2.470296 0.01075,-0.825381 0.02149,-1.650762 0.03257,-2.501155 0.02807,-2.0376577 0.06725,-4.0743029 0.116305,-6.1114542 z"
     fill="#f9aa33"
     id="path4-2"
     style="stroke-width:0.834801" />
  <path
     d="m 120.60944,4.8946248 c 0.68215,-0.01414 1.36432,-0.028289 2.06714,-0.042859 2.91596,-0.00246 4.96501,-4.687e-4 7.5878,1.486292 1.11344,1.4640065 1.11344,1.4640065 1.11344,4.0971612 -0.78605,0 -1.57209,0 -2.38195,0 0,-0.5792947 0,-1.1585877 0,-1.7554367 -5.24027,0 -10.48056,0 -15.87964,0 0,1.7378827 0,3.4757647 0,5.2663097 0.44035,-0.0092 0.88072,-0.01839 1.33441,-0.02786 2.00328,-0.03659 4.00649,-0.05936 6.00992,-0.08186 1.03936,-0.02207 1.03936,-0.02207 2.09971,-0.04457 0.67039,-0.0057 1.34078,-0.01131 2.03148,-0.01714 0.61538,-0.0092 1.23075,-0.01839 1.86478,-0.02786 1.95087,0.222752 3.23258,0.880008 4.92129,1.954723 0.38546,6.498203 0.38546,6.498203 -1.12584,8.550894 -3.15683,1.700003 -6.18059,1.450067 -9.64254,1.378292 -1.02785,0.0042 -1.02785,0.0042 -2.07645,0.0086 -5.09832,-0.04817 -5.09832,-0.04817 -7.79871,-2.038295 -0.14888,-2.742869 -0.14888,-2.742869 0,-5.266309 0.78605,0 1.57209,0 2.38195,0 0.26202,1.158588 0.52402,2.317176 0.79398,3.510872 4.97827,0 9.95654,0 15.08566,0 -0.39303,-2.172352 -0.39303,-2.172352 -0.79398,-4.388591 -0.66677,-0.01923 -0.66677,-0.01923 -1.34702,-0.03881 -2.0162,-0.06542 -4.03134,-0.150237 -6.04694,-0.235501 -1.04933,-0.0297 -1.04933,-0.0297 -2.11986,-0.06001 -0.67295,-0.03111 -1.34591,-0.06223 -2.03924,-0.09428 -0.9293,-0.03448 -0.9293,-0.03448 -1.87738,-0.06965 -2.03934,-0.46757 -2.76622,-1.219498 -4.03717,-3.012656 -0.45653,-2.498582 -0.22319,-4.4310587 0,-7.0217455 3.30257,-2.4339108 5.99561,-2.0457338 9.87516,-2.0297189 z"
     fill="#7c97a0"
     id="path5"
     style="stroke-width:0.834801" />
  <path
     d="m 128.20189,5.1689117 c 8.12244,0 16.24488,0 24.61345,0 0,0.868941 0,1.7378819 0,2.6331546 -2.88215,0 -5.76431,0 -8.73381,0 0,5.5032927 0,11.0065857 0,16.6766447 -0.52402,0 -1.04806,0 -1.58795,0 0,-5.503292 0,-11.006586 0,-16.6766447 -2.88216,0 -5.76432,0 -8.73382,0 0,-0.5792941 0,-1.1585881 0,-1.7554365 -0.52403,0 -1.04805,0 -1.58796,0 0.14738,0.5430882 0.29477,1.0861763 0.44662,1.6457215 0.34737,1.865152 0.34737,1.865152 -0.44662,3.6205877 -0.78604,0 -1.57208,0 -2.38195,0 -0.26201,0.579294 -0.52403,1.158588 -0.79398,1.755436 -3.17395,1.193572 -6.41449,0.97462 -9.72628,0.932576 -0.59158,-0.0039 -1.18316,-0.0079 -1.79267,-0.012 -1.45359,-0.0103 -2.90715,-0.02604 -4.3607,-0.04286 0,-1.737882 0,-3.475764 0,-5.2663097 2.5078,-1.3861343 5.18988,-1.003376 7.93982,-0.987433 0.87816,-0.0051 0.87816,-0.0051 1.77406,-0.01029 4.37667,0.0088 4.37667,0.0088 6.16577,0.997718 0,0.579294 0,1.158589 0,1.7554367 0.78605,0 1.57209,0 2.38195,0 -0.91446,-2.1662087 -1.62596,-3.5528591 -3.17593,-5.2663089 z"
     fill="#fafbfb"
     id="path6"
     style="stroke-width:0.834801" />
  <path
     d="m 55.155508,5.1689117 c 5.764313,0 11.528625,0 17.467614,0 0,0.868941 0,1.7378819 0,2.6331546 -5.240284,0 -10.480568,0 -15.879649,0 0,1.737882 0,3.4757637 0,5.2663087 4.97827,0 9.95654,0 15.085667,0 0,0.868941 0,1.737882 0,2.633154 -4.97827,0 -9.95654,0 -15.085667,0 0,2.317176 0,4.634353 0,7.021746 5.240285,0 10.480568,0 15.879649,0 0,0.86894 0,1.737881 0,2.633155 -5.764312,0 -11.528625,0 -17.467614,0 0,-6.661881 0,-13.323762 0,-20.1875183 z"
     fill="#f9a425"
     id="path7"
     style="stroke-width:0.834801" />
  <path
     d="m 87.70879,4.8397674 c 0.630472,-0.010181 1.260943,-0.020364 1.91052,-0.030861 6.54622,0.03618 6.54622,0.03618 9.205234,2.9931559 0.347652,2.5370247 0.450678,4.5047367 0.347367,7.0217447 -0.0046,0.635865 -0.0092,1.271731 -0.01396,1.926867 -0.06883,3.299232 -0.23371,4.929556 -1.921375,7.728033 -2.878186,0.164573 -2.878186,0.164573 -5.557877,0 0.262014,0.868942 0.524028,1.737883 0.793982,2.633155 -2.509903,-1.202329 -3.17014,-1.745837 -4.763894,-4.388591 2.882156,-0.289648 5.764312,-0.579295 8.733807,-0.877719 -0.262014,-4.344705 -0.524029,-8.689409 -0.793983,-13.1657707 -5.240284,0 -10.480569,0 -15.879649,0 -0.262015,4.3447047 -0.524029,8.6894087 -0.793982,13.1657707 1.834099,0.289648 3.668199,0.579295 5.557877,0.877719 0,0.579293 0,1.158587 0,1.755435 -1.175161,-0.09973 -2.349475,-0.21173 -3.523298,-0.329144 -0.654012,-0.06109 -1.308024,-0.122191 -1.981854,-0.185141 -0.541428,-0.11993 -1.082856,-0.239863 -1.640691,-0.363429 -1.249559,-2.762683 -1.038669,-5.691085 -1.091726,-8.722325 -0.02968,-0.639825 -0.05937,-1.279651 -0.08995,-1.938866 -0.02792,-1.870293 -0.02792,-1.870293 0.387687,-5.1377357 3.071208,-3.4289164 7.010941,-3.0285954 11.115759,-2.9622978 z"
     fill="#f8a931"
     id="path8"
     style="stroke-width:0.834801" />
  <path
     d="m 94.854632,5.1689117 c 3.668199,0 7.336398,0 11.115748,0 0,6.6618813 0,13.3237623 0,20.1875183 -2.35812,0 -4.71625,0 -7.145836,0 -0.958321,-4.237549 -0.759982,-8.183357 -0.553617,-12.502342 0.08101,-2.076573 0.08101,-2.076573 -0.240366,-5.0520217 -1.048057,-0.868941 -2.096113,-1.7378821 -3.175929,-2.6331546 z"
     fill="#fcfbf8"
     id="path9"
     style="stroke-width:0.834801" />
  <path
     d="m 30.542052,13.068375 c 0.364363,0.422025 0.728728,0.844049 1.104132,1.278863 3.137949,2.051213 6.228092,1.855278 9.813127,1.957723 1.05778,0.04497 1.05778,0.04497 2.136929,0.09086 1.735702,0.07221 3.471096,0.132962 5.207408,0.18343 0.03378,1.755038 0.0324,3.511238 0,5.266309 -0.793982,0.877717 -0.793982,0.877717 -2.196051,0.977361 -0.594586,-0.0046 -1.189171,-0.0092 -1.801774,-0.01393 -0.642243,-0.0028 -1.284484,-0.0057 -1.946188,-0.0086 -0.674993,-0.0074 -1.349988,-0.01471 -2.045435,-0.02229 -0.678064,-0.0039 -1.356129,-0.0079 -2.05474,-0.012 -1.680517,-0.01035 -3.361004,-0.02609 -5.041478,-0.04283 -0.262015,-1.158588 -0.524029,-2.317176 -0.793983,-3.510873 -0.786042,0 -1.572085,0 -2.381947,0 0,-2.027529 0,-4.055057 0,-6.144026 z"
     fill="#fdfcfb"
     id="path10"
     style="stroke-width:0.834801" />
  <path
     d="m 35.120051,7.7024233 c 0.594586,0.0046 1.18917,0.0092 1.801774,0.01393 0.642242,0.0028 1.284483,0.0057 1.946187,0.0086 0.674994,0.0074 1.349988,0.01471 2.045435,0.02229 0.678065,0.004 1.356129,0.0079 2.054741,0.012 1.680516,0.01038 3.361004,0.02612 5.041478,0.04286 0.496239,1.590865 0.496239,1.590865 0.793982,3.5108727 -0.786043,1.303412 -0.786043,1.303412 -1.587964,2.633154 -2.329414,0.217831 -4.475145,0.286522 -6.798475,0.219429 -0.944941,-0.0067 -0.944941,-0.0067 -1.90897,-0.01372 -4.667948,-0.07051 -4.667948,-0.07051 -5.58424,-1.083433 -0.09925,-2.194296 -0.09925,-2.194296 0,-4.3885897 0.793983,-0.877719 0.793983,-0.877719 2.196052,-0.977362 z"
     fill="#fcfbf6"
     id="path11"
     style="stroke-width:0.834801" />
  <path
     d="m 133.75976,5.1689117 c 6.28834,0 12.57669,0 19.05558,0 0,0.868941 0,1.7378819 0,2.6331546 -2.88215,0 -5.76431,0 -8.73381,0 0,5.5032927 0,11.0065857 0,16.6766447 -0.52402,0 -1.04806,0 -1.58795,0 0,-5.503292 0,-11.006586 0,-16.6766447 -2.88216,0 -5.76432,0 -8.73382,0 0,-0.868941 0,-1.7378821 0,-2.6331546 z"
     fill="#75929c"
     id="path12"
     style="stroke-width:0.834801" />
  <path
     d="m 30.542052,5.1689117 c 2.84505,-0.05103 5.690002,-0.082189 8.535311,-0.1097147 0.806513,-0.01471 1.613025,-0.029421 2.443977,-0.04457 0.777855,-0.00562 1.555709,-0.011313 2.357136,-0.017142 0.715165,-0.00919 1.430331,-0.018388 2.167168,-0.027859 2.074599,0.2105067 3.358768,0.7933958 5.139952,1.9547231 0,1.1585882 0,2.3171752 0,3.5108719 -0.786043,0 -1.572086,0 -2.381948,0 -0.262014,-0.5792937 -0.524028,-1.1585877 -0.793982,-1.7554357 -4.716256,0 -9.432512,0 -14.291684,0 -0.262015,1.4482347 -0.524029,2.8964697 -0.793983,4.3885907 -0.786042,0 -1.572085,0 -2.381947,0 0,-2.606823 0,-5.2136457 0,-7.8994643 z"
     fill="#f8a221"
     id="path13"
     style="stroke-width:0.834801" />
  <path
     d="m 102.79446,5.1689117 c 1.04805,0 2.09611,0 3.17592,0 0,6.6618813 0,13.3237623 0,20.1875183 -1.04805,0 -2.09611,0 -3.17592,0 0,-6.661881 0,-13.323762 0,-20.1875183 z"
     fill="#97aeb4"
     id="path14"
     style="stroke-width:0.834801" />
  <path
     d="m 30.542052,13.068375 c 0.364363,0.422025 0.728728,0.844049 1.104132,1.278863 3.137949,2.051213 6.228092,1.855278 9.813127,1.957723 1.05778,0.04497 1.05778,0.04497 2.136929,0.09086 1.735702,0.07221 3.471096,0.132962 5.207408,0.18343 -0.262014,0.579293 -0.524028,1.158588 -0.793982,1.755437 -3.930213,-0.289648 -7.860427,-0.579295 -11.909737,-0.877719 0.262014,1.448235 0.524029,2.89647 0.793982,4.388591 -1.048057,0.289646 -2.096113,0.579294 -3.175929,0.877717 -0.262015,-1.158587 -0.524029,-2.317175 -0.793983,-3.510872 -0.786042,0 -1.572085,0 -2.381947,0 0,-2.027528 0,-4.055058 0,-6.144028 z"
     fill="#faf3e1"
     id="path15"
     style="stroke-width:0.834801" />
  <path
     d="m 54.361525,6.0466298 c 0.262015,0 0.524029,0 0.793983,0 0,6.0825872 0,12.1651742 0,18.4320812 -1.834099,0 -3.668199,0 -5.557877,0 1.206372,-7.342638 1.206372,-7.342638 2.828562,-9.709757 1.802147,-2.685148 1.686937,-5.4272157 1.935332,-8.7223242 z"
     fill="#fbecd3"
     id="path16"
     style="stroke-width:0.834801" />
  <path
     d="m 77.387017,8.6797843 c 0.262014,0 0.524029,0 0.793982,0 0.262015,4.0550577 0.524029,8.1101157 0.793984,12.2880547 1.834099,0.579293 3.668199,1.158588 5.557877,1.755436 0,0.579294 0,1.158588 0,1.755436 -1.175161,-0.09973 -2.349475,-0.211731 -3.523298,-0.329144 -0.654012,-0.0611 -1.308024,-0.122195 -1.981854,-0.185145 -0.541429,-0.11993 -1.082856,-0.239863 -1.640691,-0.363429 -1.185746,-2.621598 -0.898591,-5.041611 -0.89323,-7.954321 -0.0021,-1.114462 -0.0042,-2.228924 -0.0062,-3.377159 0.105451,-2.7120097 0.105451,-2.7120097 0.899434,-3.5897287 z"
     fill="#f89c14"
     id="path17"
     style="stroke-width:0.834801" />
  <path
     d="m 72.623122,5.1689117 c 0.524029,0 1.048057,0 1.587965,0 1.15274,3.9822206 1.774624,7.1802733 1.587966,11.4103363 -0.524029,-0.289648 -1.048057,-0.579294 -1.587966,-0.877719 0,-1.158587 0,-2.317175 0,-3.510872 -1.572085,0.289647 -3.14417,0.579294 -4.763895,0.877718 0,-0.868941 0,-1.737882 0,-2.633155 1.048057,-0.289646 2.096115,-0.5792937 3.17593,-0.8777167 0,-1.448236 0,-2.8964707 0,-4.3885916 z"
     fill="#fbfdfc"
     id="path18"
     style="stroke-width:0.834801" />
  <path
     d="m 30.542052,5.1689117 c 2.096113,0 4.192227,0 6.351859,0 0.262014,0.868941 0.524029,1.7378819 0.793982,2.6331546 -1.31007,0.289647 -2.620141,0.579294 -3.969911,0.877718 -0.262015,1.4482347 -0.524029,2.8964697 -0.793983,4.3885907 -0.786042,0 -1.572085,0 -2.381947,0 0,-2.606823 0,-5.2136457 0,-7.8994633 z"
     fill="#f7b34a"
     id="path19"
     style="stroke-width:0.834801" />
  <path
     d="m 30.542052,19.212402 c 0.786043,0 1.572086,0 2.381947,0 0.262015,0.868941 0.524029,1.737882 0.793983,2.633155 2.632404,0.970007 4.925947,1.159532 7.691705,1.371434 1.404743,0.110315 1.404743,0.110315 2.837867,0.222858 1.076203,0.07977 1.076203,0.07977 2.174147,0.161144 0,0.289647 0,0.579294 0,0.877718 -2.349056,0.04721 -4.697341,0.08213 -7.046594,0.109715 -1.002512,0.02207 -1.002512,0.02207 -2.025276,0.04457 -0.639683,0.0057 -1.279366,0.01131 -1.938434,0.01714 -0.590426,0.0092 -1.180855,0.01839 -1.789174,0.02786 -1.492206,-0.199286 -1.492206,-0.199286 -3.080171,-1.954723 0,-1.158587 0,-2.317175 0,-3.510873 z"
     fill="#f89c16"
     id="path20"
     style="stroke-width:0.834801" />
  <path
     d="m 78.974983,20.09012 c 0.638659,0.162927 1.277318,0.325854 1.935332,0.493717 0.671411,0.126721 1.342822,0.253441 2.03458,0.384002 0.262014,-0.289648 0.524028,-0.579294 0.793982,-0.877719 1.322911,-0.03567 2.647043,-0.0375 3.969913,0 -0.786043,0.434471 -0.786043,0.434471 -1.587966,0.877719 -0.520496,2.218285 -0.520496,2.218285 -0.793982,4.388591 -2.358128,0 -4.716256,0 -7.145843,0 0,-0.579294 0,-1.158589 0,-1.755437 2.096115,0.289647 4.192228,0.579294 6.351861,0.877718 0,-0.579294 0,-1.158588 0,-1.755436 -1.8341,-0.289647 -3.668199,-0.579294 -5.557877,-0.877718 0,-0.579295 0,-1.158588 0,-1.755437 z"
     fill="#f9edd7"
     id="path21"
     style="stroke-width:0.834801" />
  <path
     d="m 98.824544,10.43522 c 0.262014,0 0.524028,0 0.793978,0 0.04814,0.666415 0.09621,1.332829 0.145775,2.019438 0.06654,0.872335 0.133051,1.74467 0.201592,2.64344 0.09672,1.29832 0.09672,1.29832 0.195401,2.622869 0.18621,2.451445 0.18621,2.451445 1.0452,5.002308 0.52403,0 1.04806,0 1.58797,0 0,0.86894 0,1.737881 0,2.633155 -1.31007,0 -2.62014,0 -3.969916,0 -0.977426,-3.233519 -0.720676,-6.069202 -0.446615,-9.435471 0.08086,-1.027341 0.161712,-2.054684 0.245018,-3.113157 0.06653,-0.782953 0.133054,-1.565904 0.201597,-2.372582 z"
     fill="#fce8cd"
     id="path22"
     style="stroke-width:0.834801" />
  <path
     d="m 74.211087,5.1689117 c 2.096114,0 4.192228,0 6.35186,0 -0.511747,0.3043558 -1.023493,0.6087116 -1.550747,0.9222896 -2.359394,2.483784 -2.103441,4.4880607 -2.220669,8.0194647 -0.04503,1.116724 -0.09007,2.233449 -0.136467,3.384015 -0.02047,0.856494 -0.04093,1.712989 -0.06204,2.595439 -0.262014,0 -0.524029,0 -0.793982,0 -0.0481,-0.562322 -0.0962,-1.124645 -0.145767,-1.704007 -0.387856,-4.426181 -0.837011,-8.8208947 -1.44219,-13.2172013 z"
     fill="#fcf4e4"
     id="path23"
     style="stroke-width:0.834801" />
  <path
     d="m 81.356929,6.0466298 c 5.240285,0 10.48057,0 15.87965,0 0.262014,1.158588 0.524029,2.3171765 0.793982,3.5108735 C 97.51165,9.2791693 96.99274,9.0008373 96.458104,8.7140703 93.431057,7.5625663 90.639462,7.4042282 87.46067,7.2534923 86.578674,7.2025762 86.578674,7.2025762 85.678861,7.1506343 84.23852,7.0684539 82.797753,6.9954705 81.356929,6.924348 c 0,-0.2896469 0,-0.579294 0,-0.8777182 z"
     fill="#f89b0f"
     id="path24"
     style="stroke-width:0.834801" />
  <path
     d="m 53.567543,6.924348 c 0.262015,0 0.524029,0 0.793982,0 0.03369,2.0476713 0.0325,4.096332 0,6.144027 -0.262014,0.289647 -0.524028,0.579294 -0.793982,0.877719 -0.184147,1.329473 -0.327241,2.666109 -0.446615,4.004589 -0.06653,0.725248 -0.133054,1.450497 -0.201597,2.197723 -0.04811,0.56006 -0.09621,1.120119 -0.14577,1.697151 -0.262014,0 -0.524028,0 -0.793983,0 -1.807728,-7.053093 -1.807728,-7.053093 -0.793982,-10.532618 0.524028,0 1.048057,0 1.587965,0 0.262014,-1.4482347 0.524028,-2.8964697 0.793982,-4.388591 z"
     fill="#fafdfd"
     id="path25"
     style="stroke-width:0.834801" />
  <path
     d="m 36.099929,14.823811 c 2.216737,-0.04723 4.432656,-0.08214 6.649603,-0.109715 0.630472,-0.01471 1.260943,-0.02942 1.91052,-0.04457 1.646458,-0.01543 3.293108,0.06358 4.937579,0.154286 1.587965,1.755437 1.587965,1.755437 1.587965,5.266309 -0.524029,0 -1.048057,0 -1.587965,0 -0.262014,-1.448235 -0.524028,-2.896469 -0.793983,-4.388591 -4.192227,0 -8.384454,0 -12.703719,0 0,-0.289646 0,-0.579293 0,-0.877719 z"
     fill="#fb970a"
     id="path26"
     style="stroke-width:0.834801" />
  <path
     d="m 57.537455,8.6797843 c 1.8341,0 3.668199,0 5.557878,0 -0.524029,1.4482347 -1.048057,2.8964697 -1.587965,4.3885907 -1.310071,0 -2.620143,0 -3.969913,0 0,-1.448234 0,-2.89647 0,-4.3885907 z"
     fill="#fbfcfa"
     id="path27"
     style="stroke-width:0.834801" />
  <path
     d="m 51.185596,8.6797843 c 0.524028,1.158588 1.048057,2.3171757 1.587965,3.5108727 -0.786043,0.43447 -0.786043,0.43447 -1.587965,0.877718 -0.517783,1.777057 -0.517783,1.777057 -0.793983,3.510873 -1.048057,-0.868941 -2.096114,-1.737882 -3.175929,-2.633154 0.524028,-1.158589 1.048056,-2.317177 1.587964,-3.510874 0.786043,0 1.572086,0 2.381948,0 0,-0.5792937 0,-1.1585867 0,-1.7554357 z"
     fill="#fcf0d8"
     id="path28"
     style="stroke-width:0.834801" />
  <path
     d="m 131.37782,15.701529 c 0.23261,5.31431 0.23261,5.31431 0,7.021746 -0.78605,0.579294 -1.57209,1.158588 -2.38195,1.755436 0,-0.579294 0,-1.158588 0,-1.755436 -0.52403,-0.289647 -1.04806,-0.579294 -1.58796,-0.877718 0.52402,0 1.04805,0 1.58796,0 -0.26201,-1.737882 -0.52403,-3.475764 -0.79398,-5.266309 2.38194,-0.877719 2.38194,-0.877719 3.17593,-0.877719 z"
     fill="#869fa8"
     id="path29"
     style="stroke-width:0.834801" />
  <path
     d="m 128.20189,5.1689117 c 1.8341,0 3.66819,0 5.55787,0 -0.78604,0.4344705 -0.78604,0.4344705 -1.58796,0.8777181 0.14738,0.5430882 0.29477,1.0861763 0.44662,1.6457215 0.34737,1.865152 0.34737,1.865152 -0.44662,3.6205877 -1.04806,-0.289647 -2.09612,-0.579294 -3.17593,-0.877719 0.78605,0 1.57209,0 2.38195,0 -0.91446,-2.1662077 -1.62596,-3.5528585 -3.17593,-5.2663083 z"
     fill="#eef0f2"
     id="path30"
     style="stroke-width:0.834801" />
  <g
     id="dashboard"
     transform="matrix(0.81786061,0,0,0.78473683,-301.25601,-93.952842)">
    <path
       id="Path_60"
       data-name="Path 60"
       d="M 389.561,142.316 391,138 l -3,-4 -3,4 1.438,4.316"
       fill="none"
       stroke="#f1d17c"
       stroke-linecap="round"
       stroke-linejoin="round"
       stroke-width="2" />
    <circle
       id="Ellipse_21"
       data-name="Ellipse 21"
       cx="14.998"
       cy="14.998"
       r="14.998"
       transform="translate(373.002,125.002)"
       fill="none"
       stroke="#498efc"
       stroke-linecap="round"
       stroke-linejoin="round"
       stroke-width="2" />
    <path
       id="Path_61"
       data-name="Path 61"
       d="m 392,146 h 4 a 10,10 0 1 0 -16,0 h 4"
       fill="none"
       stroke="#498efc"
       stroke-linecap="square"
       stroke-miterlimit="10"
       stroke-width="2" />
    <circle
       id="Ellipse_22"
       data-name="Ellipse 22"
       cx="4"
       cy="4"
       r="4"
       transform="translate(384,142)"
       fill="none"
       stroke="#498efc"
       stroke-linecap="round"
       stroke-linejoin="round"
       stroke-width="2" />
  </g>
</svg>
